<svg width="30" height="23" viewBox="0 0 30 23" fill="none" xmlns="http://www.w3.org/2000/svg">
<path d="M30 2.66066C28.8844 3.11188 27.6956 3.41097 26.4562 3.55619C27.7312 2.85428 28.7044 1.7513 29.1619 0.42183C27.9731 1.07533 26.6606 1.53692 25.2619 1.79452C24.1331 0.68634 22.5244 0 20.7694 0C17.3644 0 14.6231 2.54828 14.6231 5.67226C14.6231 6.12176 14.6644 6.55396 14.7656 6.96542C9.6525 6.73549 5.12813 4.47592 2.08875 1.03384C1.55812 1.88269 1.24688 2.85428 1.24688 3.90022C1.24688 5.86416 2.34375 7.60504 3.97875 8.61294C2.99062 8.59574 2.02125 8.33114 1.2 7.91454C1.2 7.93184 1.2 7.95434 1.2 7.97674C1.2 10.7325 3.33187 13.0214 6.1275 13.5487C5.62687 13.6749 5.08125 13.7354 4.515 13.7354C4.12125 13.7354 3.72375 13.7147 3.35062 13.6386C4.1475 15.8844 6.40875 17.5354 9.0975 17.589C7.005 19.0982 4.34812 20.0076 1.47188 20.0076C0.9675 20.0076 0.48375 19.9869 0 19.9298C2.72438 21.5497 5.95312 22.4746 9.435 22.4746C20.7525 22.4746 26.94 13.8305 26.94 6.33786C26.94 6.08718 26.9306 5.84515 26.9175 5.60484C28.1381 4.80612 29.1637 3.80859 30 2.66066Z" fill="#198C36"/>
</svg>
