<svg width="75" height="36" viewBox="0 0 75 36" fill="none" xmlns="http://www.w3.org/2000/svg">
<path d="M5.50404 7.20163C11.3535 12.1389 18.4322 15.3873 25.9663 16.5579C33.9027 17.7911 42.8957 17.733 50.0274 15.9904C54.913 14.793 55.6072 14.574 56.8319 13.81C54.7229 11.1917 47.8123 6.75928 48.2058 1.38413C48.2898 0.204541 49.6428 -0.407591 50.5757 0.302841C56.4649 4.79331 68.7167 12.1524 73.8985 16.7545C74.4423 17.237 75.0348 17.8268 74.9994 18.5596C74.9684 19.27 74.3628 19.7928 73.8057 20.2262C66.7447 25.6818 59.33 30.6727 51.6324 35.1587C50.5757 35.7753 49.1697 35.4446 48.5949 34.3544C48.0908 33.4071 48.6303 32.6745 49.1387 32.0221C51.5439 28.9346 53.9492 25.8471 56.3544 22.7552C43.9922 28.0321 29.5475 27.8042 17.1853 22.6167C10.2482 19.7079 4.48271 14.4668 1.10035 7.69759C-0.712422 4.06053 -0.924648 1.77733 5.50404 7.20163Z" fill="#FBC8B8"/>
</svg>
